<?xml version="1.0" encoding="UTF-8" standalone="no"?>
<!DOCTYPE svg PUBLIC "-//W3C//DTD SVG 1.1//EN"
 "http://www.w3.org/Graphics/SVG/1.1/DTD/svg11.dtd">
<!-- Generated by graphviz version 2.44.1 (20200629.0846)
 -->
<!-- Title: source Pages: 1 -->
<svg width="294pt" height="332pt"
 viewBox="0.00 0.00 294.00 332.00" xmlns="http://www.w3.org/2000/svg" xmlns:xlink="http://www.w3.org/1999/xlink">
<g id="graph0" class="graph" transform="scale(1 1) rotate(0) translate(4 328)">
<title>source</title>
<polygon fill="white" stroke="transparent" points="-4,4 -4,-328 290,-328 290,4 -4,4"/>
<!-- source_2 -->
<g id="node1" class="node">
<title>source_2</title>
<polygon fill="white" stroke="black" points="240.5,-324 182.5,-324 182.5,-288 240.5,-288 240.5,-324"/>
<text text-anchor="start" x="190.5" y="-302.3" font-family="Courier New" font-size="14.00">i = 0</text>
</g>
<!-- source_3 -->
<g id="node2" class="node">
<title>source_3</title>
<polygon fill="white" stroke="black" points="286,-252 137,-252 137,-216 286,-216 286,-252"/>
<text text-anchor="start" x="145" y="-230.3" font-family="Courier New" font-size="14.00">i &lt; len(numbers)</text>
</g>
<!-- source_2&#45;&gt;source_3 -->
<g id="edge1" class="edge">
<title>source_2&#45;&gt;source_3</title>
<path fill="none" stroke="black" d="M211.5,-287.7C211.5,-279.98 211.5,-270.71 211.5,-262.11"/>
<polygon fill="black" stroke="black" points="215,-262.1 211.5,-252.1 208,-262.1 215,-262.1"/>
</g>
<!-- source_5 -->
<g id="node3" class="node">
<title>source_5</title>
<polygon fill="white" stroke="black" points="241,-180 68,-180 68,-144 241,-144 241,-180"/>
<text text-anchor="start" x="76" y="-158.3" font-family="Courier New" font-size="14.00">numbers[i] % 2 == 0</text>
</g>
<!-- source_3&#45;&gt;source_5 -->
<g id="edge2" class="edge">
<title>source_3&#45;&gt;source_5</title>
<path fill="none" stroke="black" d="M197.41,-215.7C190.58,-207.3 182.24,-197.07 174.74,-187.86"/>
<polygon fill="black" stroke="black" points="177.46,-185.65 168.43,-180.1 172.03,-190.07 177.46,-185.65"/>
</g>
<!-- source_1 -->
<g id="node5" class="node">
<title>source_1</title>
<polygon fill="white" stroke="black" points="210.5,-36 156.5,-36 156.5,0 210.5,0 210.5,-36"/>
</g>
<!-- source_3&#45;&gt;source_1 -->
<g id="edge7" class="edge">
<title>source_3&#45;&gt;source_1</title>
<path fill="none" stroke="black" d="M227.89,-215.89C236.06,-206.19 245.11,-193.34 249.5,-180 264.51,-134.4 271.41,-115.21 250.5,-72 243.78,-58.12 231.46,-46.77 219.2,-38.18"/>
<polygon fill="black" stroke="black" points="221.08,-35.23 210.8,-32.68 217.25,-41.09 221.08,-35.23"/>
</g>
<!-- source_6 -->
<g id="node4" class="node">
<title>source_6</title>
<polygon fill="white" stroke="black" points="107,-108 0,-108 0,-72 107,-72 107,-108"/>
<text text-anchor="start" x="8" y="-86.3" font-family="Courier New" font-size="14.00">return True</text>
</g>
<!-- source_5&#45;&gt;source_6 -->
<g id="edge3" class="edge">
<title>source_5&#45;&gt;source_6</title>
<path fill="none" stroke="black" d="M129.79,-143.88C116.83,-134.89 100.77,-123.76 86.73,-114.03"/>
<polygon fill="black" stroke="black" points="88.52,-111.01 78.3,-108.19 84.53,-116.76 88.52,-111.01"/>
</g>
<!-- source_8 -->
<g id="node6" class="node">
<title>source_8</title>
<polygon fill="white" stroke="black" points="241.5,-108 125.5,-108 125.5,-72 241.5,-72 241.5,-108"/>
<text text-anchor="start" x="133.5" y="-86.3" font-family="Courier New" font-size="14.00">return False</text>
</g>
<!-- source_5&#45;&gt;source_8 -->
<g id="edge5" class="edge">
<title>source_5&#45;&gt;source_8</title>
<path fill="none" stroke="black" d="M161.67,-143.7C164.93,-135.81 168.87,-126.3 172.5,-117.55"/>
<polygon fill="black" stroke="black" points="175.82,-118.68 176.41,-108.1 169.35,-116 175.82,-118.68"/>
</g>
<!-- source_6&#45;&gt;source_1 -->
<g id="edge4" class="edge">
<title>source_6&#45;&gt;source_1</title>
<path fill="none" stroke="black" d="M85.3,-71.88C104.12,-61.74 128.01,-48.88 147.52,-38.37"/>
<polygon fill="black" stroke="black" points="149.27,-41.4 156.42,-33.58 145.96,-35.24 149.27,-41.4"/>
</g>
<!-- source_8&#45;&gt;source_1 -->
<g id="edge6" class="edge">
<title>source_8&#45;&gt;source_1</title>
<path fill="none" stroke="black" d="M183.5,-71.7C183.5,-63.98 183.5,-54.71 183.5,-46.11"/>
<polygon fill="black" stroke="black" points="187,-46.1 183.5,-36.1 180,-46.1 187,-46.1"/>
</g>
</g>
</svg>
